<mxfile host="app.diagrams.net" agent="Mozilla/5.0 (Windows NT 10.0; Win64; x64) AppleWebKit/537.36 (KHTML, like Gecko) Chrome/139.0.0.0 Safari/537.36" version="28.1.0">
  <diagram name="PÃ¡gina-1" id="iMwhg93A2kO9Xd2t5E-z">
    <mxGraphModel dx="1426" dy="749" grid="1" gridSize="10" guides="1" tooltips="1" connect="1" arrows="1" fold="1" page="1" pageScale="1" pageWidth="827" pageHeight="1169" math="0" shadow="0">
      <root>
        <mxCell id="0" />
        <mxCell id="1" parent="0" />
        <mxCell id="BbS6msGJqygMup_6dQyT-4" style="edgeStyle=orthogonalEdgeStyle;rounded=0;orthogonalLoop=1;jettySize=auto;html=1;entryX=0.4;entryY=0.027;entryDx=0;entryDy=0;entryPerimeter=0;" edge="1" parent="1" source="BbS6msGJqygMup_6dQyT-1" target="BbS6msGJqygMup_6dQyT-5">
          <mxGeometry relative="1" as="geometry">
            <mxPoint x="150" y="140" as="targetPoint" />
          </mxGeometry>
        </mxCell>
        <mxCell id="BbS6msGJqygMup_6dQyT-11" style="edgeStyle=orthogonalEdgeStyle;rounded=0;orthogonalLoop=1;jettySize=auto;html=1;entryX=0.5;entryY=0;entryDx=0;entryDy=0;" edge="1" parent="1" source="BbS6msGJqygMup_6dQyT-1" target="BbS6msGJqygMup_6dQyT-8">
          <mxGeometry relative="1" as="geometry" />
        </mxCell>
        <mxCell id="BbS6msGJqygMup_6dQyT-15" style="edgeStyle=orthogonalEdgeStyle;rounded=0;orthogonalLoop=1;jettySize=auto;html=1;exitX=0.5;exitY=1;exitDx=0;exitDy=0;" edge="1" parent="1" source="BbS6msGJqygMup_6dQyT-1" target="BbS6msGJqygMup_6dQyT-12">
          <mxGeometry relative="1" as="geometry" />
        </mxCell>
        <mxCell id="BbS6msGJqygMup_6dQyT-1" value="Iphone" style="swimlane;fontStyle=1;align=center;verticalAlign=middle;childLayout=stackLayout;horizontal=1;startSize=29;horizontalStack=0;resizeParent=1;resizeParentMax=0;resizeLast=0;collapsible=0;marginBottom=0;html=1;whiteSpace=wrap;" vertex="1" parent="1">
          <mxGeometry x="310" y="10" width="140" height="54" as="geometry" />
        </mxCell>
        <mxCell id="BbS6msGJqygMup_6dQyT-5" value="&lt;div&gt;&amp;lt;&amp;lt;interface&amp;gt;&amp;gt;&lt;/div&gt;AparelhoTelefonico" style="swimlane;fontStyle=1;align=center;verticalAlign=middle;childLayout=stackLayout;horizontal=1;startSize=29;horizontalStack=0;resizeParent=1;resizeParentMax=0;resizeLast=0;collapsible=0;marginBottom=0;html=1;whiteSpace=wrap;" vertex="1" parent="1">
          <mxGeometry x="80" y="140" width="170" height="110" as="geometry" />
        </mxCell>
        <mxCell id="BbS6msGJqygMup_6dQyT-6" value="+ ligar(): void&lt;div&gt;&lt;br&gt;&lt;/div&gt;&lt;div&gt;+ desligar(): void&lt;/div&gt;&lt;div&gt;&lt;br&gt;&lt;/div&gt;&lt;div&gt;+ iniciarCorreioDeVoz(): void&lt;/div&gt;" style="text;html=1;strokeColor=none;fillColor=none;align=left;verticalAlign=middle;spacingLeft=4;spacingRight=4;overflow=hidden;rotatable=0;points=[[0,0.5],[1,0.5]];portConstraint=eastwest;whiteSpace=wrap;" vertex="1" parent="BbS6msGJqygMup_6dQyT-5">
          <mxGeometry y="29" width="170" height="81" as="geometry" />
        </mxCell>
        <mxCell id="BbS6msGJqygMup_6dQyT-8" value="&lt;div&gt;&amp;lt;&amp;lt;interface&amp;gt;&amp;gt;&lt;/div&gt;NavegadorNaInternet    " style="swimlane;fontStyle=1;align=center;verticalAlign=middle;childLayout=stackLayout;horizontal=1;startSize=29;horizontalStack=0;resizeParent=1;resizeParentMax=0;resizeLast=0;collapsible=0;marginBottom=0;html=1;whiteSpace=wrap;" vertex="1" parent="1">
          <mxGeometry x="500" y="140" width="180" height="110" as="geometry" />
        </mxCell>
        <mxCell id="BbS6msGJqygMup_6dQyT-9" value="+ exibirPagina(): void&lt;div&gt;&lt;br&gt;&lt;/div&gt;&lt;div&gt;&amp;nbsp;+ adicionarNovaAba(): void&lt;/div&gt;&lt;div&gt;&lt;br&gt;&lt;/div&gt;&lt;div&gt;+ atualizarPagina(): void&lt;/div&gt;" style="text;html=1;strokeColor=none;fillColor=none;align=left;verticalAlign=middle;spacingLeft=4;spacingRight=4;overflow=hidden;rotatable=0;points=[[0,0.5],[1,0.5]];portConstraint=eastwest;whiteSpace=wrap;" vertex="1" parent="BbS6msGJqygMup_6dQyT-8">
          <mxGeometry y="29" width="180" height="81" as="geometry" />
        </mxCell>
        <mxCell id="BbS6msGJqygMup_6dQyT-12" value="&lt;div&gt;&amp;lt;&amp;lt;interface&amp;gt;&amp;gt;&lt;/div&gt;ReprodutorMusical" style="swimlane;fontStyle=1;align=center;verticalAlign=middle;childLayout=stackLayout;horizontal=1;startSize=29;horizontalStack=0;resizeParent=1;resizeParentMax=0;resizeLast=0;collapsible=0;marginBottom=0;html=1;whiteSpace=wrap;" vertex="1" parent="1">
          <mxGeometry x="290" y="140" width="180" height="110" as="geometry" />
        </mxCell>
        <mxCell id="BbS6msGJqygMup_6dQyT-13" value="+ tocar(): void&amp;nbsp;&lt;div&gt;&lt;br&gt;+ pausar(): void&amp;nbsp;&lt;/div&gt;&lt;div&gt;&lt;br&gt;+ selecionarMusica(): void&amp;nbsp;&lt;/div&gt;" style="text;html=1;strokeColor=none;fillColor=none;align=left;verticalAlign=middle;spacingLeft=4;spacingRight=4;overflow=hidden;rotatable=0;points=[[0,0.5],[1,0.5]];portConstraint=eastwest;whiteSpace=wrap;" vertex="1" parent="BbS6msGJqygMup_6dQyT-12">
          <mxGeometry y="29" width="180" height="81" as="geometry" />
        </mxCell>
        <mxCell id="BbS6msGJqygMup_6dQyT-20" style="edgeStyle=orthogonalEdgeStyle;rounded=0;orthogonalLoop=1;jettySize=auto;html=1;entryX=0.5;entryY=1.012;entryDx=0;entryDy=0;entryPerimeter=0;" edge="1" parent="1" source="BbS6msGJqygMup_6dQyT-16" target="BbS6msGJqygMup_6dQyT-9">
          <mxGeometry relative="1" as="geometry">
            <mxPoint x="590" y="260" as="targetPoint" />
          </mxGeometry>
        </mxCell>
        <mxCell id="BbS6msGJqygMup_6dQyT-16" value="Safari" style="swimlane;fontStyle=1;align=center;verticalAlign=middle;childLayout=stackLayout;horizontal=1;startSize=29;horizontalStack=0;resizeParent=1;resizeParentMax=0;resizeLast=0;collapsible=0;marginBottom=0;html=1;whiteSpace=wrap;" vertex="1" parent="1">
          <mxGeometry x="520" y="330" width="140" height="54" as="geometry" />
        </mxCell>
        <mxCell id="BbS6msGJqygMup_6dQyT-24" value="SaidaSom" style="swimlane;fontStyle=1;align=center;verticalAlign=middle;childLayout=stackLayout;horizontal=1;startSize=29;horizontalStack=0;resizeParent=1;resizeParentMax=0;resizeLast=0;collapsible=0;marginBottom=0;html=1;whiteSpace=wrap;" vertex="1" parent="1">
          <mxGeometry x="310" y="330" width="140" height="54" as="geometry" />
        </mxCell>
        <mxCell id="BbS6msGJqygMup_6dQyT-27" style="edgeStyle=orthogonalEdgeStyle;rounded=0;orthogonalLoop=1;jettySize=auto;html=1;entryX=0.494;entryY=1;entryDx=0;entryDy=0;entryPerimeter=0;" edge="1" parent="1" source="BbS6msGJqygMup_6dQyT-24" target="BbS6msGJqygMup_6dQyT-13">
          <mxGeometry relative="1" as="geometry">
            <Array as="points">
              <mxPoint x="379" y="300" />
              <mxPoint x="379" y="300" />
            </Array>
          </mxGeometry>
        </mxCell>
        <mxCell id="BbS6msGJqygMup_6dQyT-28" value="SaidaSinalTelefone" style="swimlane;fontStyle=1;align=center;verticalAlign=middle;childLayout=stackLayout;horizontal=1;startSize=29;horizontalStack=0;resizeParent=1;resizeParentMax=0;resizeLast=0;collapsible=0;marginBottom=0;html=1;whiteSpace=wrap;" vertex="1" parent="1">
          <mxGeometry x="95" y="330" width="140" height="54" as="geometry" />
        </mxCell>
        <mxCell id="BbS6msGJqygMup_6dQyT-31" style="edgeStyle=orthogonalEdgeStyle;rounded=0;orthogonalLoop=1;jettySize=auto;html=1;entryX=0.5;entryY=1.012;entryDx=0;entryDy=0;entryPerimeter=0;" edge="1" parent="1" source="BbS6msGJqygMup_6dQyT-28" target="BbS6msGJqygMup_6dQyT-6">
          <mxGeometry relative="1" as="geometry">
            <Array as="points">
              <mxPoint x="165" y="310" />
              <mxPoint x="165" y="310" />
            </Array>
          </mxGeometry>
        </mxCell>
      </root>
    </mxGraphModel>
  </diagram>
</mxfile>
